<svg width="128" height="128" viewBox="0 0 128 128" fill="none" xmlns="http://www.w3.org/2000/svg">
<g clip-path="url(#clip0_1_4)">
<circle cx="64" cy="64" r="62" stroke="white" stroke-width="4"/>
<path d="M58.943 38.845L60.217 12L67.4653 12.3466C69.4103 12.4396 70.8009 12.9851 71.6368 13.9831C72.4834 14.9714 72.8549 16.5586 72.7511 18.7449L72.6954 19.9193C72.6355 21.1802 72.3591 22.1913 71.8661 22.9525C71.3832 23.7141 70.675 24.195 69.7416 24.3949C70.9326 24.7576 71.7039 25.513 72.0556 26.6611C72.4179 27.7995 72.5606 29.1771 72.4839 30.7939C72.4014 32.5327 72.1671 34.0452 71.7812 35.3312C71.3953 36.6173 70.7597 37.601 69.8745 38.2823C68.9893 38.9636 67.7615 39.2667 66.1913 39.1916L58.943 38.845ZM64.9644 22.3626L66.0585 22.4149C66.5548 22.4386 66.8831 22.2607 67.0433 21.8811C67.2035 21.5014 67.2963 21.0422 67.3219 20.5032L67.45 17.8035C67.491 16.9391 67.1317 16.4888 66.3719 16.4525L65.2474 16.3987L64.9644 22.3626ZM64.9265 34.392C66.3144 34.4584 67.0397 33.8306 67.1024 32.5087L67.2617 29.153C67.2979 28.3904 67.2099 27.7849 66.9976 27.3365C66.796 26.8784 66.3811 26.6344 65.753 26.6043L64.7653 26.5571L64.3961 34.3361C64.618 34.3671 64.7948 34.3857 64.9265 34.392Z" fill="white"/>
<path d="M78.8999 44.187C77.0824 42.8879 76.1059 41.4213 75.9703 39.7872C75.8406 38.1448 76.4817 36.3286 77.8936 34.3384L89.2681 18.3049L93.5062 21.3342L82.2552 37.1935C81.9964 37.5584 81.767 37.9256 81.5671 38.2951C81.3731 38.6563 81.274 38.9979 81.2697 39.3198C81.2655 39.6417 81.4286 39.9207 81.759 40.1569C82.0977 40.399 82.415 40.4696 82.7108 40.3685C83.0124 40.2592 83.3004 40.0464 83.5746 39.73C83.8571 39.4195 84.1278 39.0819 84.3866 38.717L95.6376 22.8577L99.8757 25.887L88.5012 41.9204C87.0893 43.9106 85.589 45.1128 84.0003 45.5269C82.4176 45.9328 80.7174 45.4861 78.8999 44.187Z" fill="white"/>
<path d="M85.6558 49.6889L110.513 39.7003L113.566 47.3555C114.075 48.6314 114.167 49.7127 113.844 50.5994C113.529 51.4823 112.893 52.2424 111.935 52.8798C110.989 53.5228 109.815 54.1261 108.412 54.6899C107.056 55.2347 105.904 55.495 104.955 55.4707C104.009 55.4559 103.191 55.0336 102.5 54.2039C102.652 55.0527 102.48 55.7578 101.983 56.3194C101.499 56.8867 100.768 57.367 99.7886 57.7605L90.3826 61.5403L88.4207 56.6211L98.1515 52.7108C98.8765 52.4195 99.2634 52.0886 99.3123 51.718C99.3743 51.3532 99.2734 50.84 99.0095 50.1784L87.6687 54.7357L85.6558 49.6889ZM103.328 48.4758L103.809 49.6808C104.084 50.3707 104.97 50.4148 106.467 49.8132C107.437 49.4235 108.042 49.0925 108.283 48.8203C108.524 48.548 108.562 48.2039 108.396 47.7881L107.933 46.6256L103.328 48.4758Z" fill="white"/>
<path d="M89.2099 69.1485C89.9335 65.3799 92.9841 64.0158 98.3618 65.0562L109.7 67.2496C114.609 68.1994 116.649 70.8335 115.82 75.1518C115.479 76.9311 114.858 78.2263 113.959 79.0372C113.069 79.85 111.908 80.3044 110.475 80.4003C109.041 80.4962 107.343 80.3544 105.382 79.9749L106.372 74.8169L108.702 75.2677C109.27 75.3775 109.758 75.3891 110.168 75.3023C110.585 75.2275 110.84 74.9452 110.934 74.4554C111.051 73.8457 110.925 73.4013 110.555 73.1224C110.183 72.8535 109.753 72.6718 109.265 72.5774L96.5233 70.1123C95.8163 69.9756 95.2214 69.9538 94.7387 70.047C94.264 70.1522 93.9749 70.4746 93.8713 71.0144C93.7638 71.5742 93.9118 71.9865 94.3155 72.2512C94.7271 72.5278 95.2965 72.7364 96.0235 72.8771L99.7729 73.6024L100.044 72.193L104.585 73.0715L103.347 79.519L88.0353 76.5568L88.4412 74.4427L90.8248 73.9707C89.3681 72.7351 88.8298 71.1277 89.2099 69.1485Z" fill="white"/>
<path d="M86.1763 79.1716L105.554 97.7178L98.1634 105.498L94.42 101.915L98.0523 98.0915L94.2759 94.4771L90.7905 98.1462L87.1462 94.6582L90.6315 90.9891L86.1945 86.7425L82.3207 90.8205L78.5443 87.2061L86.1763 79.1716Z" fill="white"/>
<path d="M76.0019 88.7341L82.3143 114.852L74.3309 116.796C73.0004 117.12 71.9209 117.058 71.0926 116.61C70.2667 116.172 69.6077 115.432 69.1156 114.389C68.616 113.358 68.1881 112.106 67.8319 110.632C67.4875 109.207 67.3949 108.025 67.554 107.086C67.7031 106.148 68.236 105.395 69.1526 104.827C68.2939 104.858 67.623 104.586 67.1399 104.012C66.6494 103.451 66.2798 102.656 66.0311 101.627L63.6425 91.7437L68.7725 90.4945L71.2437 100.719C71.4278 101.481 71.6991 101.912 72.0575 102.014C72.4085 102.127 72.9289 102.1 73.6188 101.932L70.7388 90.0157L76.0019 88.7341ZM74.6832 106.465L73.4265 106.771C72.707 106.946 72.5374 107.821 72.9176 109.394C73.1638 110.413 73.4041 111.061 73.6383 111.339C73.8725 111.618 74.2064 111.704 74.6401 111.598L75.8524 111.303L74.6832 106.465Z" fill="white"/>
<path d="M48.1055 86.6518L35.1712 93.1902L26.6805 102.806L23.4455 98.6773L29.8244 91.8742L21.828 96.6128L18.5837 92.4717L29.8956 86.4564L39.2845 75.3929L42.6323 79.666L35.449 87.4926L44.7482 82.3667L48.1055 86.6518Z" fill="white"/>
<path d="M38.97 74.6042L24.5674 73.0855L12.2451 76.5675L11.7476 71.3384L20.7781 69.0769L11.4989 68.7238L11 63.4794L23.7561 64.5577L37.6136 60.3457L38.1284 65.7572L27.8698 68.4432L38.4537 69.1775L38.97 74.6042Z" fill="white"/>
<path d="M38.8054 57.5028L15.0072 45.1877L17.461 40.4102L37.2027 50.626L39.7262 45.7128L43.7827 47.8119L38.8054 57.5028Z" fill="white"/>
<circle cx="43" cy="27" r="5" fill="white"/>
<circle cx="53" cy="105" r="5" fill="white"/>
</g>
<defs>
<clipPath id="clip0_1_4">
<rect width="128" height="128" fill="white"/>
</clipPath>
</defs>
</svg>
